<?xml version="1.0" encoding="utf-8"?>
<!-- Generator: Adobe Illustrator 13.0.0, SVG Export Plug-In . SVG Version: 6.00 Build 14948)  -->
<!DOCTYPE svg PUBLIC "-//W3C//DTD SVG 1.1//EN" "http://www.w3.org/Graphics/SVG/1.1/DTD/svg11.dtd">
<svg version="1.1" id="图层_1" xmlns="http://www.w3.org/2000/svg" xmlns:xlink="http://www.w3.org/1999/xlink" x="0px" y="0px"
	 width="124.503px" height="140.8px" viewBox="0 0 124.503 140.8" enable-background="new 0 0 124.503 140.8" xml:space="preserve">
<polygon fill="#FFFFFF" stroke="#000000" stroke-width="2" points="62.252,2.473 122.968,139.8 1.536,139.8 "/>
<g>
	<path d="M47.466,83.498c0.168,0.168,0.24,0.289,0.24,0.36c0,0.097-0.096,0.12-0.312,0.12H44.01v3.096
		c1.92,0.816,2.592,1.848,2.592,2.616c0,0.552-0.408,1.08-0.696,1.08c-0.24,0-0.408-0.288-0.48-0.672
		c-0.12-0.647-0.384-1.488-1.416-2.497v7.009c0,1.824,0,3.479,0.048,4.562v0.144c0,0.336-0.096,0.408-0.576,0.672
		c-0.24,0.12-0.408,0.192-0.504,0.192c-0.144,0-0.192-0.12-0.192-0.432c0-0.097,0.024-0.24,0.024-0.385
		c0.072-1.392,0.12-3.432,0.12-4.8v-7.825c-0.912,2.736-1.92,4.969-3.648,7.44l-0.312-0.192c1.704-2.976,3.12-6.816,3.745-10.009
		h-1.656c-0.504,0-1.2,0.096-1.608,0.264l-0.672-0.888c0.6,0.048,1.2,0.096,1.752,0.096h2.4v-2.136c0-0.983-0.048-2.616-0.096-3.504
		l1.608,0.769c0.192,0.096,0.312,0.168,0.312,0.239c0,0.12-0.096,0.168-0.744,0.647v3.984h1.44l0.84-1.248L47.466,83.498z
		 M60.356,98.523c0.191,0.191,0.287,0.313,0.287,0.408s-0.119,0.12-0.383,0.12H47.85c-0.456,0-1.104,0.096-1.464,0.239l-0.6-0.863
		c0.528,0.048,1.08,0.096,1.584,0.096h6.84c1.392-4.271,2.401-7.896,2.809-9.889l1.416,0.695c0.168,0.072,0.239,0.145,0.239,0.217
		c0,0.096-0.096,0.168-0.288,0.287c-0.264,0.145-0.384,0.192-0.72,1.08c-0.408,1.032-1.2,3.145-2.904,7.608h3.36l0.96-1.319
		L60.356,98.523z M54.067,78.673c0.144,0.072,0.192,0.144,0.192,0.216c0,0.12-0.72,0.216-0.84,0.288
		c2.472,4.008,5.161,6.048,8.208,6.672l-0.023,0.313c-1.129-0.024-1.776,0.239-2.064,0.672c-0.023,0.047-0.072,0.071-0.145,0.071
		c-0.047,0-0.119-0.024-0.191-0.071c-2.809-1.944-4.656-4.345-6.048-7.345c-2.112,3.576-3.865,6-6.553,8.28l-0.264-0.24
		c2.688-2.736,5.112-6.938,6.241-9.744L54.067,78.673z M48.331,89.643c1.32,1.848,2.448,4.151,2.448,5.448
		c0,0.695-0.288,1.296-0.888,1.296c-0.312,0-0.456-0.288-0.456-1.296c0-0.721-0.384-3.336-1.392-5.305L48.331,89.643z M57.02,86.978
		c0.191,0.191,0.287,0.313,0.287,0.384c0,0.097-0.119,0.12-0.384,0.12h-6.097c-0.456,0-1.104,0.096-1.464,0.24l-0.6-0.864
		c0.528,0.048,1.08,0.097,1.584,0.097h4.584l0.864-1.201L57.02,86.978z M51.859,88.563c1.368,2.256,2.16,4.272,2.16,5.521
		c0,0.84-0.384,1.513-0.912,1.513c-0.312,0-0.408-0.456-0.408-1.56c0-1.057-0.313-3.48-1.152-5.354L51.859,88.563z"/>
	<path d="M68.899,92.714l-3.841,1.705c-0.434,0.191-0.77,0.504-0.938,0.768c-0.047,0.072-0.096,0.096-0.144,0.096
		s-0.072-0.023-0.12-0.072l-0.889-1.271l5.809-1.488L68.899,92.714z M71.585,89.546c0.072,0.048,0.097,0.096,0.097,0.144
		c0,0.024-0.022,0.072-0.097,0.12l-0.551,0.408c-0.145,3.457-0.408,6.097-0.648,6.961c-0.407,1.416-0.938,1.824-2.881,2.64
		c-0.049,0.024-0.096,0.048-0.145,0.048c-0.072,0-0.119-0.072-0.168-0.24c-0.168-0.672-0.6-1.08-2.472-1.703l0.12-0.385
		c1.199,0.336,2.088,0.504,2.736,0.504c1.366,0,1.728-0.768,1.967-2.304c0.217-1.296,0.408-3.983,0.457-5.903h-3.89l-0.647,0.623
		c-0.071,0.072-0.145,0.121-0.191,0.121s-0.096-0.024-0.145-0.072l-1.295-0.984l0.888-0.504l0.456-4.607
		c0.144-1.513,0.168-1.705,0.191-2.257l1.487,0.601c0.146,0.072,0.218,0.119,0.218,0.168c0,0.072-0.072,0.119-0.722,0.552
		l-0.601,5.832h2.761l0.815-8.712H65.68c-0.696,0-1.2,0.096-1.608,0.264L63.4,79.971c0.602,0.048,1.2,0.096,1.752,0.096h3.913
		l0.623-0.815l1.297,1.031c0.097,0.072,0.144,0.12,0.144,0.168c0,0.049-0.047,0.096-0.144,0.168l-0.647,0.48l-0.769,8.208h0.287
		l0.528-0.672L71.585,89.546z M78.453,78.89c0.118,0.072,0.168,0.145,0.168,0.191c0,0.121-0.146,0.121-0.457,0.121
		c1.512,3.768,4.176,5.783,7.44,6.647l-0.024,0.264c-1.056,0.024-1.513,0.288-1.92,0.696c-0.048,0.048-0.097,0.072-0.144,0.072
		c-0.05,0-0.121-0.024-0.192-0.072c-2.855-1.969-4.296-3.984-5.544-7.417c-2.305,3.647-4.729,6.769-7.057,8.474l-0.289-0.24
		c2.496-2.305,5.209-6.625,6.577-9.649L78.453,78.89z M83.852,98.378c0.168,0.192,0.239,0.336,0.239,0.408
		c0,0.096-0.096,0.12-0.336,0.12H73.05c-0.456,0-1.104,0.097-1.465,0.24l-0.6-0.864c0.527,0.049,1.08,0.096,1.584,0.096h5.784
		c1.151-3.576,1.992-7.008,2.376-9.192l1.537,0.672c0.168,0.072,0.238,0.144,0.238,0.216c0,0.096-0.096,0.192-0.287,0.288
		c-0.408,0.216-0.527,0.312-0.793,1.104c-0.359,1.056-1.127,3.168-2.566,6.912h2.809l1.031-1.344L83.852,98.378z M81.739,87.482
		c0.146,0.168,0.24,0.313,0.24,0.385c0,0.096-0.119,0.144-0.336,0.144h-7.226c-0.455,0-1.104,0.096-1.463,0.239l-0.602-0.863
		c0.529,0.048,1.08,0.096,1.585,0.096h5.784l0.936-1.2L81.739,87.482z M72.833,89.833c1.465,1.824,2.088,3.289,2.256,4.633
		c0.024,0.119,0.024,0.24,0.024,0.359c0,0.793-0.36,1.225-0.815,1.225c-0.432,0-0.457-0.313-0.457-1.68
		c0-1.104-0.336-2.664-1.271-4.345L72.833,89.833z M75.979,89.306c1.271,1.896,1.942,3.359,2.112,4.465
		c0.023,0.145,0.048,0.313,0.048,0.456c0,0.72-0.288,1.319-0.792,1.319c-0.336,0-0.506-0.432-0.506-1.56
		c0-1.151-0.336-3.048-1.127-4.487L75.979,89.306z"/>
</g>
<g>
	<path d="M61.532,116.794c-1.128-0.049-1.752,0.096-2.328,0.72c-0.072,0.096-0.145,0.12-0.217,0.12
		c-0.071,0-0.168-0.024-0.264-0.096c-4.08-2.81-6.36-5.689-8.016-9.218c-4.489,5.304-7.849,8.642-11.785,10.825l-0.144-0.264
		c4.224-2.881,8.977-8.329,10.849-12.121l1.776,0.744c0.192,0.072,0.264,0.144,0.264,0.191c0,0.024-0.528,0.217-0.624,0.288
		c2.208,4.417,6.672,7.97,10.489,8.497V116.794z M56.011,116.673c0.168,0.168,0.265,0.289,0.265,0.385
		c0,0.12-0.145,0.168-0.361,0.168H45.667c-0.504,0-1.2,0.096-1.608,0.264l-0.672-0.888c0.6,0.048,1.2,0.096,1.752,0.096h8.497
		l0.96-1.344L56.011,116.673z M56.708,120.851c0.119,0.072,0.191,0.168,0.191,0.24s-0.072,0.144-0.191,0.216l-0.768,0.432v3.72
		c0,0.816,0,1.656,0.071,2.617v0.168c0,0.312-0.12,0.407-0.552,0.623c-0.217,0.096-0.36,0.145-0.456,0.145
		c-0.144,0-0.192-0.12-0.192-0.313v-1.439H45.09v1.176c0,0.432-0.768,0.792-1.008,0.792c-0.168,0-0.216-0.144-0.216-0.479
		c0-0.457,0.12-2.713,0.12-3.217v-3.697c0-0.576-0.024-1.728-0.072-2.472l1.656,1.32h8.689l0.864-1.032L56.708,120.851z
		 M54.811,126.731v-5.521H45.09v5.521H54.811z"/>
	<path d="M71.753,112.451c0.192,0.191,0.313,0.312,0.313,0.383c0,0.072-0.146,0.097-0.407,0.097h-3.576v2.448
		c1.729,0.479,2.854,1.08,3.287,1.656c0.145,0.191,0.192,0.407,0.192,0.647c0,0.456-0.239,0.912-0.504,0.912
		s-0.433-0.144-0.647-0.552c-0.457-0.889-1.201-1.608-2.328-2.305v7.561c0,1.873,0,3.697,0.047,4.801v0.191
		c0,0.313-0.071,0.433-0.575,0.648c-0.24,0.096-0.384,0.145-0.505,0.145c-0.168,0-0.215-0.121-0.215-0.457v-0.336
		c0.072-1.416,0.119-3.647,0.119-5.041v-7.681c-1.248,3.479-2.447,6.048-4.031,8.232l-0.313-0.24
		c1.729-2.88,3.265-6.817,4.177-10.633h-1.367c-0.504,0-1.201,0.096-1.608,0.264l-0.673-0.888c0.601,0.048,1.201,0.096,1.753,0.096
		h2.063v-2.184c0-1.008-0.047-2.665-0.097-3.576l1.729,0.84c0.168,0.096,0.264,0.145,0.264,0.216c0,0.097-0.48,0.433-0.768,0.648
		v4.056H69.5l0.888-1.224L71.753,112.451z M85.772,118.955c-0.961,0-1.681,0.36-2.017,0.864c-0.049,0.072-0.145,0.12-0.217,0.12
		c-0.096,0-3.385-1.632-5.473-3.6c-1.344,1.248-2.904,2.447-4.729,3.527l0.912,0.769h6.192l0.647-1.009l1.416,1.009
		c0.119,0.071,0.191,0.144,0.191,0.216s-0.072,0.145-0.191,0.24l-0.575,0.455v3.697c0,1.031,0.022,1.991,0.096,2.615
		c0,0.096,0.022,0.168,0.022,0.217c0,0.312-0.118,0.407-0.623,0.647c-0.217,0.071-0.36,0.12-0.456,0.12
		c-0.146,0-0.169-0.096-0.169-0.313v-1.848h-6.6v1.584c0,0.288-0.072,0.432-0.505,0.6c-0.239,0.096-0.384,0.168-0.504,0.168
		c-0.168,0-0.192-0.144-0.192-0.527c0-0.528,0.072-3.072,0.072-3.336v-3.889c0-0.455,0-0.863-0.048-1.248
		c-1.009,0.576-2.089,1.129-3.265,1.656l-0.145-0.336c3.288-1.848,5.977-3.816,7.754-5.688c-1.058-1.152-1.922-2.448-2.736-4.08
		c-1.033,1.752-1.896,3.119-2.881,4.319l-0.313-0.192c1.681-2.879,2.903-5.448,4.058-8.832l1.487,0.888
		c0.146,0.071,0.218,0.144,0.218,0.216s-0.098,0.12-0.24,0.168c-0.48,0.145-0.576,0.217-0.89,0.816
		c-0.239,0.48-0.504,0.912-0.72,1.344h5.354l0.815-1.008l1.463,1.248c0.097,0.096,0.169,0.144,0.169,0.216
		c0,0.071-0.097,0.12-0.265,0.192c-0.791,0.287-0.888,0.384-1.224,0.959c-0.602,1.009-1.705,2.496-2.953,3.769
		c2.111,1.681,4.345,2.497,7.058,2.929v0.336H85.772z M80.803,126.155v-4.993h-6.601v4.993H80.803z M75.067,110.818
		c0.647,1.464,1.802,3.24,2.881,4.225c1.151-1.297,2.111-2.664,2.832-4.225H75.067z"/>
</g>
<g>
	<path fill="#FFFFFF" d="M54.811,126.731v-5.521H45.09v5.521H54.811z"/>
	<path fill="#FFFFFF" d="M80.803,126.155v-4.993h-6.601v4.993H80.803z M75.067,110.818c0.647,1.464,1.802,3.24,2.881,4.225
		c1.151-1.297,2.111-2.664,2.832-4.225H75.067z"/>
</g>
</svg>
