<?xml version="1.0" encoding="utf-8"?>
<!-- Generator: Adobe Illustrator 13.0.0, SVG Export Plug-In . SVG Version: 6.00 Build 14948)  -->
<!DOCTYPE svg PUBLIC "-//W3C//DTD SVG 1.1//EN" "http://www.w3.org/Graphics/SVG/1.1/DTD/svg11.dtd">
<svg version="1.1" id="图层_1" xmlns="http://www.w3.org/2000/svg" xmlns:xlink="http://www.w3.org/1999/xlink" x="0px" y="0px"
	 width="143.407px" height="187.477px" viewBox="0 0 143.407 187.477" enable-background="new 0 0 143.407 187.477"
	 xml:space="preserve">
<path fill-rule="evenodd" clip-rule="evenodd" fill="#1F3793" d="M1.423,0.905h141.983v185.614H1.423V0.905L1.423,0.905z"/>
<path fill-rule="evenodd" clip-rule="evenodd" fill="#FFFFFF" d="M3.914,3.492H140.72V184.3H3.914V3.492L3.914,3.492z"/>
<g id="Page_1">
	<g id="Layer_1_1_">
		<path fill="#1F3793" d="M72.416,9.862c33.995,0,61.563,27.57,61.563,61.564c0,29.363-20.567,53.925-48.077,60.077
			c15.884,7.599,26.009,13.417,42.601,7.276c-11.334,11.87-47.872,16.863-62.875,7.082c-19.936-12.995-26.771-11.917-40.397-9.873
			c2.339-2.407,8.725-7.481,17.571-10.584c-19.039-10.47-31.948-30.717-31.948-53.979C10.851,37.432,38.419,9.862,72.416,9.862
			L72.416,9.862z M37.627,113.678V89.266h4.678c5.688,20.116,13.082,23.388,28.704,24.592c4.58,0.354,10.066-1.481,12.963-5.173
			c1.983-2.526,2.626-7.73,1.842-11.059c-1.254-5.323-8.515-10.114-20.533-16.439C45.438,70.744,36.506,65.647,35.395,54.19
			c-1.778-18.349,14.928-28.819,36.974-29.851c6.846-0.318,13.425,1.421,19.959,4.708c2.96,1.491,9.927,5.431,10.817,0.807h5.688
			v23.625l-5.09-0.198c-1.9-16.464-16.77-24.005-30.088-24.005c-11.036,0-14.509,6.204-13.303,13.981
			c0.828,5.33,5.2,9.555,19.415,16.838c19.211,9.844,30.032,17.647,30.392,30.842c0.484,17.771-13.276,26.45-35.322,27.431
			c-8.353,0.37-15.869-1.216-22.512-4.774c-4.001-2.144-8.701-6.591-9.803,0.299L37.627,113.678L37.627,113.678z"/>
	</g>
</g>
<g id="Page_2">
	<g id="Layer_2">
		<path fill="#FFFFFF" d="M37.114,113.762V89.351h4.678c5.688,20.117,13.082,23.387,28.705,24.592
			c4.579,0.354,10.065-1.481,12.964-5.173c1.982-2.525,2.626-7.731,1.841-11.06c-1.253-5.322-8.515-10.114-20.533-16.439
			C44.925,70.828,35.993,65.731,34.881,54.275C33.104,35.926,49.81,25.456,71.855,24.424c6.847-0.318,13.425,1.421,19.959,4.708
			c2.961,1.491,9.927,5.431,10.818,0.807h5.688v23.625l-5.089-0.198C101.33,36.902,86.46,29.36,73.143,29.36
			c-11.037,0-14.51,6.203-13.304,13.98c0.827,5.331,5.2,9.555,19.414,16.838c19.212,9.844,30.032,17.647,30.393,30.842
			c0.484,17.77-13.277,26.451-35.323,27.431c-8.352,0.369-15.869-1.216-22.512-4.774c-4-2.145-8.701-6.592-9.802,0.298
			L37.114,113.762L37.114,113.762z"/>
	</g>
</g>
<g>
	<path fill="#1F3793" d="M32.861,159.02c4.776-0.438,8.645-1.237,11.604-2.396c0.454,0.407,0.846,0.799,1.174,1.175
		c0.329,0.376,0.529,0.61,0.599,0.705c0.071,0.094,0.106,0.191,0.106,0.293c0,0.103-0.04,0.188-0.118,0.259
		c-0.079,0.07-0.161,0.105-0.247,0.105c-0.086,0-0.161-0.016-0.223-0.047c-0.423-0.188-0.939-0.282-1.55-0.282
		c-0.439,0-0.995,0.075-1.668,0.224s-2.091,0.302-4.252,0.458s-4.033,0.228-5.614,0.211c0,0.987-0.008,1.708-0.023,2.161h5.943
		c0-0.893-0.016-1.636-0.047-2.231c1.77,0.298,2.655,0.557,2.655,0.775c0,0.109-0.22,0.298-0.658,0.563v0.893h5.426l1.01-1.174
		c0.172-0.203,0.317-0.306,0.435-0.306c0.117,0,0.466,0.306,1.045,0.916c0.579,0.611,0.869,0.991,0.869,1.14
		s-0.157,0.223-0.47,0.223h-8.315v2.326h2.889l0.658-0.893c0.109-0.156,0.219-0.235,0.329-0.235c0.109,0,0.478,0.228,1.104,0.682
		c0.626,0.454,0.939,0.736,0.939,0.846s-0.235,0.258-0.705,0.446v3.734l0.023,1.762c0,0.188-0.027,0.317-0.082,0.388
		c-0.055,0.071-0.294,0.173-0.717,0.306c-0.423,0.134-0.76,0.2-1.01,0.2c-0.141,0-0.211-0.118-0.211-0.353v-6.132h-7.494v6.108
		c0,0.125-0.043,0.23-0.129,0.316c-0.086,0.087-0.313,0.192-0.681,0.317c-0.368,0.126-0.701,0.188-0.999,0.188
		c-0.094,0-0.141-0.095-0.141-0.282l0.047-0.775c0.031-0.532,0.047-1.175,0.047-1.926v-3.477c0-0.689-0.023-1.363-0.07-2.021
		c0.626,0.156,1.276,0.423,1.95,0.799h2.302v-2.326h-5.943c-0.063,2.521-0.153,4.343-0.27,5.462
		c-0.118,1.12-0.321,2.204-0.611,3.254c-0.29,1.049-0.74,2.095-1.351,3.136c-0.611,1.041-1.433,2.126-2.467,3.253l-0.587-0.211
		c0.955-1.331,1.652-2.58,2.091-3.747c0.438-1.166,0.728-2.572,0.869-4.217c0.141-1.644,0.211-4.282,0.211-7.916
		c0-1.018-0.016-2.372-0.047-4.063C31.146,157.948,31.937,158.409,32.861,159.02z M39.885,172.927
		c-0.548,1.159-1.465,2.114-2.749,2.866c-1.284,0.752-3.109,1.409-5.474,1.973l-0.141-0.47c1.801-0.704,3.195-1.394,4.181-2.067
		c0.987-0.673,1.688-1.351,2.103-2.031c0.415-0.682,0.708-1.507,0.881-2.479c0.172-0.971,0.266-2.349,0.282-4.135
		c0.987,0.235,1.66,0.415,2.021,0.541c0.36,0.125,0.54,0.234,0.54,0.328c0,0.095-0.079,0.188-0.235,0.282
		c-0.157,0.094-0.262,0.2-0.317,0.317c-0.055,0.117-0.098,0.31-0.129,0.575c-0.157,1.738-0.407,3.007-0.751,3.806
		c2.74,0.579,4.651,1.12,5.731,1.621s1.621,1.284,1.621,2.349c0,0.345-0.055,0.643-0.165,0.893c-0.11,0.251-0.235,0.376-0.376,0.376
		c-0.141,0-0.262-0.035-0.364-0.105c-0.102-0.07-0.271-0.231-0.505-0.481c-0.924-0.972-1.789-1.734-2.596-2.291
		C42.637,174.238,41.45,173.616,39.885,172.927z"/>
	<path fill="#1F3793" d="M62.905,171.259v1.856h4.346l0.728-0.917c0.094-0.141,0.2-0.211,0.317-0.211
		c0.117,0,0.485,0.231,1.104,0.693c0.618,0.462,0.928,0.763,0.928,0.904c0,0.141-0.267,0.211-0.799,0.211h-6.625v1.95h6.319
		l0.846-1.175c0.125-0.173,0.258-0.259,0.399-0.259c0.141,0,0.536,0.282,1.186,0.846c0.649,0.564,0.975,0.932,0.975,1.104
		c0,0.109-0.204,0.164-0.61,0.164H52.264c-0.423,0-0.752,0.055-0.987,0.165l-0.423-0.964c0.329,0.078,0.72,0.118,1.175,0.118h8.856
		v-1.95h-6.084c-0.423,0-0.752,0.055-0.987,0.165l-0.47-0.964c0.329,0.079,0.72,0.118,1.174,0.118h6.366v-1.856h-3.994
		c0,0.204-0.023,0.329-0.07,0.376s-0.168,0.126-0.364,0.235s-0.493,0.223-0.893,0.34c-0.399,0.118-0.626,0.177-0.681,0.177
		c-0.055,0-0.074-0.07-0.059-0.212c0.078-0.72,0.117-1.487,0.117-2.302v-2.561c0-0.799-0.023-1.542-0.07-2.231
		c1.034,0.251,1.809,0.501,2.326,0.752h9.608l0.517-0.775c0.078-0.125,0.176-0.188,0.293-0.188c0.118,0,0.337,0.099,0.658,0.294
		c0.321,0.196,0.646,0.411,0.975,0.646c0.329,0.234,0.493,0.392,0.493,0.47c0,0.141-0.267,0.36-0.798,0.657v1.785
		c0,0.752,0.007,1.254,0.023,1.504l0.023,0.704c0,0.142-0.059,0.255-0.176,0.341c-0.118,0.087-0.376,0.181-0.775,0.282
		s-0.708,0.152-0.928,0.152c-0.125,0-0.188-0.094-0.188-0.281v-0.165H62.905z M69.107,163.906l0.822-1.339
		c0.094-0.172,0.211-0.259,0.353-0.259c0.141,0,0.383,0.149,0.728,0.446l1.081,0.894c0.376,0.313,0.563,0.54,0.563,0.681
		s-0.18,0.212-0.54,0.212H52.476c-0.423,0-0.752,0.055-0.987,0.164l-0.423-0.916c0.329,0.078,0.72,0.117,1.175,0.117H69.107z
		 M57.667,157.282h8.645l0.611-0.775c0.078-0.094,0.156-0.141,0.235-0.141c0.125,0,0.529,0.18,1.21,0.54s1.022,0.622,1.022,0.787
		c0,0.164-0.274,0.372-0.822,0.622v1.691c0,0.454,0.015,0.939,0.047,1.456l0.023,0.729c0,0.11-0.016,0.192-0.047,0.247
		c-0.032,0.055-0.165,0.156-0.399,0.305c-0.235,0.149-0.525,0.29-0.869,0.423c-0.345,0.134-0.56,0.2-0.646,0.2
		c-0.086,0-0.129-0.07-0.129-0.212v-0.61h-9.021c0.031,0.141,0.02,0.247-0.035,0.317c-0.055,0.07-0.188,0.16-0.399,0.27
		c-0.211,0.11-0.501,0.22-0.869,0.329c-0.368,0.11-0.595,0.165-0.681,0.165s-0.122-0.086-0.105-0.259
		c0.078-0.752,0.117-1.527,0.117-2.325v-2.726c0-0.657-0.023-1.323-0.07-1.996C56.391,156.647,57.119,156.969,57.667,157.282z
		 M60.885,168.181v-1.715h-3.994v1.715H60.885z M60.885,170.578v-1.668h-3.994v1.668H60.885z M66.546,159.584v-1.621h-9.021v1.621
		H66.546z M66.546,161.933v-1.691h-9.021v1.691H66.546z M62.905,166.467v1.715h4.017v-1.715H62.905z M62.905,168.91v1.668h4.017
		v-1.668H62.905z"/>
	<path fill="#1F3793" d="M81.298,166.913h-4.909c-0.423,0-0.752,0.056-0.987,0.165l-0.423-0.987
		c0.329,0.079,0.721,0.118,1.175,0.118h5.521c0.86-1.707,1.589-3.414,2.185-5.121c0.688,0.266,1.269,0.521,1.738,0.763
		c0.47,0.243,0.735,0.399,0.799,0.47c0.063,0.071,0.094,0.146,0.094,0.224c0,0.188-0.133,0.29-0.399,0.306
		c-0.454,0.031-0.857,0.403-1.21,1.115c-0.353,0.713-0.748,1.461-1.187,2.244h8.504l1.128-1.48c0.141-0.172,0.258-0.259,0.353-0.259
		c0.094,0,0.254,0.087,0.481,0.259c0.227,0.173,0.532,0.435,0.916,0.787s0.638,0.603,0.764,0.752
		c0.125,0.148,0.188,0.278,0.188,0.388c0,0.172-0.141,0.258-0.423,0.258h-4.698c-0.673,2.021-1.573,3.72-2.701,5.098
		c3.555,1.002,5.332,2.052,5.332,3.147c0,0.501-0.07,0.932-0.211,1.292s-0.294,0.541-0.458,0.541c-0.165,0-0.306-0.044-0.423-0.13
		s-0.286-0.23-0.505-0.435c-1.457-1.347-3.094-2.411-4.91-3.194c-1.19,1.064-2.631,1.906-4.322,2.525
		c-1.691,0.618-3.86,1.123-6.507,1.515l-0.094-0.399c4.243-1.143,7.282-2.592,9.114-4.346c-1.551-0.548-3.617-1.064-6.201-1.55
		C80.131,169.035,80.891,167.68,81.298,166.913z M79.02,160.429c0.047,0.298,0.07,0.58,0.07,0.846c0,0.83-0.176,1.496-0.528,1.997
		s-0.834,0.751-1.445,0.751c-0.345,0-0.61-0.086-0.798-0.258c-0.188-0.172-0.282-0.349-0.282-0.528c0-0.181,0.156-0.466,0.47-0.857
		c0.955-1.175,1.417-2.529,1.386-4.064h0.54c0.204,0.549,0.345,1.011,0.423,1.386h12.709l0.681-0.939
		c0.095-0.141,0.196-0.211,0.306-0.211s0.285,0.078,0.528,0.234c0.243,0.157,0.646,0.474,1.21,0.951
		c0.563,0.479,0.889,0.764,0.975,0.857c0.086,0.095,0.13,0.188,0.13,0.282c0,0.173-0.267,0.271-0.799,0.294
		c-0.533,0.023-1.046,0.176-1.539,0.458s-1.358,0.979-2.596,2.091l-0.399-0.235c0.674-1.08,1.183-2.099,1.527-3.054H79.02z
		 M88.557,166.913h-5.238l-2.021,3.595c1.848,0.313,3.484,0.642,4.909,0.986C87.273,170.241,88.055,168.714,88.557,166.913z
		 M83.013,155.825c1.189,0.22,2.11,0.475,2.76,0.764c0.65,0.29,0.976,0.67,0.976,1.14c0,0.22-0.063,0.478-0.188,0.775
		c-0.125,0.297-0.349,0.548-0.669,0.751c-0.321,0.204-0.561,0.306-0.717,0.306c-0.157,0-0.274-0.125-0.353-0.376
		c-0.188-0.752-0.431-1.327-0.729-1.727c-0.297-0.399-0.713-0.802-1.245-1.21L83.013,155.825z"/>
	<path fill="#1F3793" d="M109.511,157.986c-1.3,2.381-2.835,4.308-4.604,5.779s-4.063,2.764-6.883,3.876l-0.211-0.47
		c2.505-1.362,4.486-2.815,5.942-4.357c1.457-1.543,2.835-3.841,4.135-6.895c2.052,0.657,3.077,1.096,3.077,1.315
		c0,0.109-0.133,0.195-0.399,0.258c-0.267,0.063-0.462,0.118-0.587,0.165c2.506,3.445,5.841,5.685,10.007,6.718l-0.023,0.493
		c-0.203-0.031-0.399-0.047-0.587-0.047c-1.003,0-1.691,0.376-2.067,1.128c-0.063,0.109-0.181,0.164-0.353,0.164
		c-0.125,0-0.298-0.07-0.517-0.211c-1.128-0.705-2.095-1.434-2.901-2.185c-0.807-0.752-1.526-1.586-2.161-2.502
		C110.745,160.301,110.122,159.223,109.511,157.986z M107.679,166.209h-3.266c-0.423,0-0.752,0.047-0.986,0.141l-0.423-0.986
		c0.328,0.078,0.72,0.117,1.174,0.117h7.729l0.752-1.151c0.141-0.219,0.259-0.329,0.353-0.329c0.172,0,0.571,0.306,1.198,0.917
		c0.626,0.61,0.939,0.986,0.939,1.127c0,0.11-0.164,0.165-0.493,0.165h-4.722v4.04h3.171l0.822-1.175
		c0.125-0.188,0.259-0.281,0.399-0.281s0.56,0.293,1.257,0.881c0.696,0.587,1.045,0.947,1.045,1.08c0,0.134-0.18,0.2-0.54,0.2
		h-6.154v4.65h5.191l0.939-1.409c0.109-0.173,0.243-0.259,0.399-0.259s0.622,0.329,1.397,0.987c0.775,0.657,1.163,1.061,1.163,1.21
		c0,0.148-0.188,0.223-0.563,0.223H100.96c-0.423,0-0.752,0.047-0.986,0.141l-0.588-1.01c0.329,0.078,0.721,0.117,1.175,0.117h7.118
		v-4.65h-4.394c-0.36,0-0.688,0.055-0.986,0.164l-0.587-0.986c0.328,0.078,0.72,0.117,1.174,0.117h4.793V166.209z"/>
</g>
<g>
	<path fill="#FFFFFF" d="M60.885,168.244v-1.715h-3.994v1.715H60.885z M60.885,170.64v-1.668h-3.994v1.668H60.885z M66.546,159.646
		v-1.621h-9.021v1.621H66.546z M66.546,161.996v-1.691h-9.021v1.691H66.546z M62.905,166.529v1.715h4.017v-1.715H62.905z
		 M62.905,168.972v1.668h4.017v-1.668H62.905z"/>
	<path fill="#FFFFFF" d="M88.557,166.913h-5.238l-2.021,3.595c1.848,0.313,3.484,0.642,4.909,0.986
		C87.273,170.241,88.055,168.714,88.557,166.913z"/>
</g>
</svg>
